<svg xmlns="http://www.w3.org/2000/svg" viewBox="0 0 1000 300"><defs><style>.cls-1{fill:#fff}</style></defs><g id="Layer_1"><path d="M64.836 235.836V121.389H7.433v171.67h171.671v-57.223H64.836z" class="cls-1"/><path d="M293.552 6.941H7.435v85.748h57.223V64.343h171.671v171.491h-28.525v57.224h85.748V6.941zM437.072 95.745v8.643h-63.348v38.457h59.322v8.643h-59.322v42.035h64.092v8.644h-74.227V95.745h73.483ZM508.316 202.167v-14.609h-.296c-.994 2.486-2.459 4.77-4.398 6.856s-4.151 3.852-6.633 5.294a34.328 34.328 0 0 1-7.976 3.354c-2.83.793-5.638 1.192-8.42 1.192-5.861 0-10.954-1.07-15.275-3.207-4.326-2.132-7.927-5.065-10.807-8.791-2.884-3.726-5.02-8.048-6.408-12.97-1.393-4.917-2.087-10.108-2.087-15.576 0-5.464.694-10.654 2.087-15.572 1.388-4.921 3.524-9.243 6.408-12.97 2.88-3.725 6.48-6.681 10.807-8.867 4.321-2.185 9.414-3.278 15.276-3.278 2.88 0 5.687.35 8.42 1.044s5.293 1.764 7.675 3.202a27.047 27.047 0 0 1 6.337 5.293c1.837 2.087 3.252 4.52 4.246 7.3h.3V95.745h9.391v106.422h-8.647Zm-51.494-26.607c.94 3.928 2.432 7.43 4.47 10.511s4.644 5.59 7.824 7.524c3.18 1.94 7.008 2.906 11.478 2.906 4.966 0 9.167-.967 12.593-2.906 3.43-1.935 6.212-4.443 8.348-7.524s3.677-6.583 4.622-10.51a50.67 50.67 0 0 0 1.415-11.85 50.66 50.66 0 0 0-1.415-11.846c-.945-3.928-2.486-7.43-4.622-10.511-2.136-3.077-4.917-5.59-8.348-7.524-3.426-1.94-7.627-2.907-12.593-2.907-4.47 0-8.299.968-11.478 2.907a24.625 24.625 0 0 0-7.824 7.524c-2.038 3.08-3.53 6.583-4.47 10.51a50.195 50.195 0 0 0-1.42 11.846c0 3.977.47 7.927 1.42 11.85ZM589.398 202.167v-13.861h-.295c-2.486 5.168-6.091 9.118-10.807 11.85-4.72 2.732-9.965 4.098-15.724 4.098-4.872 0-9.02-.672-12.446-2.011-3.43-1.344-6.211-3.256-8.347-5.742-2.141-2.48-3.704-5.513-4.698-9.09s-1.487-7.65-1.487-12.223v-49.93h9.387v50.078c.201 6.96 1.814 12.222 4.845 15.8s8.272 5.365 15.724 5.365c4.076 0 7.551-.868 10.435-2.606 2.88-1.738 5.267-4.049 7.152-6.933 1.89-2.88 3.283-6.184 4.174-9.91a48.622 48.622 0 0 0 1.344-11.403v-40.391h9.387v76.909h-8.644ZM664.22 135.84c-3.48-3.278-8.348-4.917-14.609-4.917-4.47 0-8.397.945-11.774 2.83-3.381 1.89-6.185 4.372-8.42 7.453-2.239 3.081-3.927 6.583-5.069 10.506a42.763 42.763 0 0 0-1.715 11.998c0 4.076.573 8.075 1.715 12.002 1.142 3.924 2.83 7.426 5.07 10.507 2.234 3.081 5.038 5.567 8.42 7.452 3.376 1.89 7.304 2.83 11.773 2.83 2.88 0 5.612-.541 8.2-1.639a22.05 22.05 0 0 0 6.857-4.545c1.984-1.94 3.623-4.246 4.917-6.928 1.29-2.688 2.087-5.616 2.383-8.796h9.391c-1.29 9.342-4.72 16.62-10.283 21.837-5.566 5.217-12.723 7.824-21.465 7.824-5.862 0-11.053-1.07-15.576-3.207-4.523-2.132-8.321-5.038-11.402-8.72-3.081-3.672-5.415-7.971-7.004-12.889-1.59-4.921-2.383-10.161-2.383-15.728 0-5.562.793-10.802 2.383-15.724 1.59-4.917 3.923-9.212 7.004-12.893 3.081-3.673 6.879-6.606 11.402-8.792 4.523-2.185 9.714-3.278 15.576-3.278 8.25 0 15.227 2.186 20.941 6.557 5.715 4.375 9.119 10.98 10.211 19.821h-9.391c-1.29-5.759-3.677-10.282-7.152-13.56ZM698.202 137.18c1.586-3.279 3.749-5.961 6.48-8.048s5.94-3.628 9.616-4.622c3.677-.99 7.752-1.487 12.222-1.487 3.377 0 6.758.323 10.135.968 3.376.649 6.408 1.863 9.09 3.65 2.683 1.79 4.869 4.299 6.562 7.528 1.688 3.229 2.53 7.43 2.53 12.593v40.84c0 3.78 1.84 5.665 5.518 5.665 1.092 0 2.087-.197 2.978-.596v7.9c-1.093.202-2.06.35-2.907.448-.842.098-1.912.148-3.202.148-2.387 0-4.3-.323-5.737-.968-1.442-.645-2.561-1.567-3.354-2.758-.797-1.192-1.321-2.607-1.568-4.25-.246-1.64-.371-3.449-.371-5.437h-.296c-1.693 2.485-3.408 4.693-5.146 6.632-1.737 1.935-3.676 3.552-5.813 4.842-2.136 1.294-4.568 2.284-7.3 2.982-2.736.694-5.987 1.044-9.763 1.044-3.578 0-6.932-.426-10.063-1.268s-5.862-2.185-8.195-4.026c-2.338-1.836-4.174-4.17-5.518-7.004-1.339-2.83-2.01-6.185-2.01-10.059 0-5.365 1.19-9.561 3.578-12.598 2.382-3.027 5.535-5.338 9.463-6.928 3.923-1.59 8.348-2.705 13.265-3.354 4.917-.645 9.91-1.268 14.98-1.863 1.989-.197 3.726-.448 5.218-.744 1.491-.3 2.732-.82 3.726-1.567.99-.744 1.76-1.76 2.31-3.055.543-1.29.82-2.982.82-5.07 0-3.174-.524-5.785-1.567-7.823-1.044-2.033-2.486-3.65-4.322-4.846-1.84-1.191-3.977-2.01-6.409-2.458-2.436-.448-5.042-.668-7.823-.668-5.966 0-10.834 1.415-14.61 4.246-3.775 2.83-5.763 7.376-5.96 13.637h-9.391c.3-4.47 1.24-8.344 2.834-11.626Zm46.948 22.956c-.595 1.093-1.737 1.886-3.426 2.383-1.693.497-3.184.846-4.474 1.043a274.892 274.892 0 0 1-12.293 1.863c-4.228.547-8.075 1.366-11.555 2.46-3.48 1.096-6.332 2.66-8.567 4.697-2.24 2.038-3.354 4.944-3.354 8.72 0 2.382.47 4.496 1.415 6.332a15.27 15.27 0 0 0 3.802 4.77c1.586 1.343 3.426 2.36 5.513 3.054a20.055 20.055 0 0 0 6.409 1.043c3.578 0 7.004-.541 10.282-1.639 3.283-1.092 6.136-2.682 8.572-4.77s4.371-4.621 5.813-7.6c1.442-2.982 2.163-6.359 2.163-10.134v-12.222h-.3ZM803.876 125.258v7.9h-15.652v51.87c0 3.08.421 5.49 1.268 7.228.841 1.738 2.955 2.71 6.332 2.906 2.683 0 5.365-.152 8.052-.447v7.9c-1.392 0-2.785.049-4.174.147a59.165 59.165 0 0 1-4.174.148c-6.26 0-10.636-1.214-13.117-3.65-2.485-2.432-3.677-6.932-3.578-13.489v-52.613H765.42v-7.9h13.413v-23.104h9.391v23.104h15.652ZM826.68 95.745v15.057h-9.39V95.745h9.39Zm0 29.513v76.909h-9.39v-76.909h9.39ZM894.122 126.301c4.519 2.186 8.32 5.12 11.402 8.792 3.081 3.681 5.415 7.976 7.004 12.893 1.59 4.922 2.387 10.162 2.387 15.724 0 5.567-.797 10.807-2.387 15.728-1.59 4.918-3.923 9.217-7.004 12.89-3.081 3.68-6.883 6.587-11.402 8.72-4.523 2.135-9.714 3.206-15.576 3.206s-11.053-1.07-15.576-3.207c-4.524-2.132-8.321-5.038-11.402-8.72-3.082-3.672-5.415-7.971-7.005-12.889-1.59-4.921-2.382-10.161-2.382-15.728 0-5.562.792-10.802 2.382-15.724 1.59-4.917 3.923-9.212 7.005-12.893 3.08-3.673 6.878-6.606 11.402-8.792 4.523-2.185 9.714-3.278 15.576-3.278s11.053 1.093 15.576 3.278Zm-27.35 7.453c-3.381 1.89-6.185 4.37-8.42 7.452-2.239 3.081-3.927 6.583-5.07 10.506a42.763 42.763 0 0 0-1.714 11.998c0 4.076.573 8.075 1.715 12.002 1.142 3.924 2.83 7.426 5.07 10.507 2.234 3.081 5.038 5.567 8.419 7.452 3.377 1.89 7.304 2.83 11.774 2.83 4.474 0 8.397-.94 11.774-2.83 3.376-1.885 6.189-4.37 8.424-7.452s3.923-6.583 5.065-10.507a42.77 42.77 0 0 0 1.715-12.002c0-4.07-.573-8.07-1.715-11.998-1.142-3.923-2.83-7.425-5.065-10.506s-5.048-5.562-8.424-7.452c-3.377-1.886-7.3-2.83-11.774-2.83-4.47 0-8.397.944-11.774 2.83ZM939.507 125.258v13.265h.3c1.787-4.67 4.966-8.424 9.539-11.254 4.568-2.83 9.588-4.246 15.052-4.246 5.365 0 9.862.694 13.49 2.087 3.627 1.393 6.533 3.35 8.719 5.885s3.726 5.643 4.621 9.315c.896 3.677 1.34 7.802 1.34 12.374v49.483h-9.387V154.17c0-3.278-.3-6.333-.896-9.163-.596-2.835-1.64-5.293-3.13-7.38s-3.503-3.727-6.037-4.918c-2.535-1.191-5.688-1.787-9.463-1.787-3.78 0-7.13.668-10.064 2.011-2.928 1.34-5.414 3.18-7.452 5.513-2.037 2.338-3.627 5.119-4.77 8.348s-1.764 6.731-1.862 10.506v44.866h-9.387v-76.909h9.387Z" class="cls-1"/></g></svg>